<svg width="25" height="25" viewBox="0 0 25 25" fill="none" xmlns="http://www.w3.org/2000/svg">
<path d="M12.5 24.4922C10.8516 24.4922 9.30469 24.1797 7.85938 23.5547C6.41406 22.9375 5.14453 22.082 4.05078 20.9883C2.95703 19.8945 2.09766 18.625 1.47266 17.1797C0.855469 15.7344 0.546875 14.1875 0.546875 12.5391C0.546875 10.8906 0.855469 9.34375 1.47266 7.89844C2.09766 6.45312 2.95703 5.18359 4.05078 4.08984C5.14453 2.98828 6.41406 2.12891 7.85938 1.51172C9.30469 0.894531 10.8516 0.585938 12.5 0.585938C14.1484 0.585938 15.6953 0.894531 17.1406 1.51172C18.5859 2.12891 19.8555 2.98828 20.9492 4.08984C22.043 5.18359 22.8984 6.45312 23.5156 7.89844C24.1406 9.34375 24.4531 10.8906 24.4531 12.5391C24.4531 14.1875 24.1406 15.7344 23.5156 17.1797C22.8984 18.625 22.043 19.8945 20.9492 20.9883C19.8555 22.082 18.5859 22.9375 17.1406 23.5547C15.6953 24.1797 14.1484 24.4922 12.5 24.4922ZM12.5 22.5C13.875 22.5 15.1641 22.2422 16.3672 21.7266C17.5703 21.2109 18.6289 20.4961 19.543 19.582C20.457 18.668 21.1719 17.6094 21.6875 16.4062C22.2031 15.2031 22.4609 13.9141 22.4609 12.5391C22.4609 11.1641 22.2031 9.875 21.6875 8.67188C21.1719 7.46094 20.457 6.40234 19.543 5.49609C18.6289 4.58203 17.5703 3.86719 16.3672 3.35156C15.1641 2.83594 13.875 2.57812 12.5 2.57812C11.125 2.57812 9.83594 2.83594 8.63281 3.35156C7.42969 3.86719 6.37109 4.58203 5.45703 5.49609C4.54297 6.40234 3.82812 7.46094 3.3125 8.67188C2.79688 9.875 2.53906 11.1641 2.53906 12.5391C2.53906 13.9141 2.79688 15.2031 3.3125 16.4062C3.82812 17.6094 4.54297 18.668 5.45703 19.582C6.37109 20.4961 7.42969 21.2109 8.63281 21.7266C9.83594 22.2422 11.125 22.5 12.5 22.5ZM7.13281 18.4688C6.89844 18.4688 6.72266 18.4023 6.60547 18.2695C6.49609 18.1289 6.44141 17.9492 6.44141 17.7305C6.44141 17.4102 6.5625 16.9961 6.80469 16.4883C7.05469 15.9727 7.42578 15.4609 7.91797 14.9531C8.41797 14.4375 9.04688 14.0039 9.80469 13.6523C10.5625 13.3008 11.457 13.125 12.4883 13.125C13.5195 13.125 14.4141 13.3008 15.1719 13.6523C15.9297 14.0039 16.5547 14.4375 17.0469 14.9531C17.5469 15.4609 17.918 15.9727 18.1602 16.4883C18.4102 16.9961 18.5352 17.4102 18.5352 17.7305C18.5352 17.9492 18.4766 18.1289 18.3594 18.2695C18.25 18.4023 18.0781 18.4688 17.8438 18.4688H7.13281ZM12.4883 12.1641C11.9336 12.1641 11.4258 12.0195 10.9648 11.7305C10.5117 11.4414 10.1484 11.0508 9.875 10.5586C9.60938 10.0664 9.47656 9.50781 9.47656 8.88281C9.47656 8.29688 9.60938 7.76172 9.875 7.27734C10.1484 6.78516 10.5117 6.39453 10.9648 6.10547C11.4258 5.80859 11.9336 5.66016 12.4883 5.66016C13.043 5.66016 13.5469 5.80859 14 6.10547C14.4609 6.39453 14.8242 6.78516 15.0898 7.27734C15.3633 7.76172 15.5 8.29688 15.5 8.88281C15.5 9.50781 15.3633 10.0703 15.0898 10.5703C14.8242 11.0625 14.4609 11.4531 14 11.7422C13.5469 12.0312 13.043 12.1719 12.4883 12.1641Z" fill="black"/>
</svg>
