<svg width="25" height="22" viewBox="0 0 25 22" fill="none" xmlns="http://www.w3.org/2000/svg">
<path d="M12.4932 21.7495C12.376 21.7495 12.2354 21.7144 12.0713 21.644C11.915 21.5815 11.7744 21.5112 11.6494 21.4331C9.44629 20.0269 7.53613 18.5542 5.91895 17.0151C4.30176 15.4683 3.05176 13.8823 2.16895 12.2573C1.29395 10.6245 0.856445 8.97607 0.856445 7.31201C0.856445 6.27295 1.02051 5.32373 1.34863 4.46436C1.68457 3.59717 2.14941 2.84717 2.74316 2.21436C3.33691 1.58154 4.02832 1.09326 4.81738 0.749512C5.60645 0.405762 6.46191 0.233887 7.38379 0.233887C8.53223 0.233887 9.54004 0.526855 10.4072 1.11279C11.2744 1.69873 11.9697 2.47217 12.4932 3.43311C13.0244 2.46436 13.7236 1.69092 14.5908 1.11279C15.458 0.526855 16.4619 0.233887 17.6025 0.233887C18.5244 0.233887 19.3799 0.405762 20.1689 0.749512C20.9658 1.09326 21.6572 1.58154 22.2432 2.21436C22.8369 2.84717 23.2979 3.59717 23.626 4.46436C23.9619 5.32373 24.1299 6.27295 24.1299 7.31201C24.1299 8.97607 23.6885 10.6245 22.8057 12.2573C21.9307 13.8823 20.6846 15.4683 19.0674 17.0151C17.458 18.5542 15.5518 20.0269 13.3486 21.4331C13.2236 21.5112 13.0791 21.5815 12.915 21.644C12.7588 21.7144 12.6182 21.7495 12.4932 21.7495Z" fill="#FF0000"/>
</svg>
