<svg width="24" height="24" viewBox="0 0 24 24" fill="none" xmlns="http://www.w3.org/2000/svg">
<mask id="mask0_177_426" style="mask-type:alpha" maskUnits="userSpaceOnUse" x="0" y="0" width="24" height="24">
<rect width="24" height="24" fill="#D9D9D9"/>
</mask>
<g mask="url(#mask0_177_426)">
<path d="M11.5001 11.5C10.4688 11.5 9.58603 11.1328 8.85165 10.3984C8.11728 9.66406 7.75009 8.78125 7.75009 7.75C7.75009 6.71875 8.11728 5.83594 8.85165 5.10156C9.58603 4.36719 10.4688 4 11.5001 4C12.5313 4 13.4142 4.36719 14.1485 5.10156C14.8829 5.83594 15.2501 6.71875 15.2501 7.75C15.2501 8.78125 14.8829 9.66406 14.1485 10.3984C13.4142 11.1328 12.5313 11.5 11.5001 11.5ZM4.00009 19V16.375C4.00009 15.8438 4.13681 15.3555 4.41025 14.9102C4.68369 14.4648 5.04697 14.125 5.50009 13.8906C6.46884 13.4062 7.45322 13.043 8.45322 12.8008C9.45322 12.5586 10.4688 12.4375 11.5001 12.4375C12.5313 12.4375 13.547 12.5586 14.547 12.8008C15.547 13.043 16.5313 13.4062 17.5001 13.8906C17.9532 14.125 18.3165 14.4648 18.5899 14.9102C18.8634 15.3555 19.0001 15.8438 19.0001 16.375V19H4.00009ZM5.87509 17.125H17.1251V16.375C17.1251 16.2031 17.0821 16.0469 16.9962 15.9062C16.9102 15.7656 16.797 15.6562 16.6563 15.5781C15.8126 15.1562 14.961 14.8398 14.1017 14.6289C13.2423 14.418 12.3751 14.3125 11.5001 14.3125C10.6251 14.3125 9.7579 14.418 8.89853 14.6289C8.03915 14.8398 7.18759 15.1562 6.34384 15.5781C6.20322 15.6562 6.08994 15.7656 6.004 15.9062C5.91806 16.0469 5.87509 16.2031 5.87509 16.375V17.125ZM11.5001 9.625C12.0157 9.625 12.4571 9.44141 12.8243 9.07422C13.1915 8.70703 13.3751 8.26562 13.3751 7.75C13.3751 7.23438 13.1915 6.79297 12.8243 6.42578C12.4571 6.05859 12.0157 5.875 11.5001 5.875C10.9845 5.875 10.5431 6.05859 10.1759 6.42578C9.80869 6.79297 9.62509 7.23438 9.62509 7.75C9.62509 8.26562 9.80869 8.70703 10.1759 9.07422C10.5431 9.44141 10.9845 9.625 11.5001 9.625Z" fill="#4E4E4E"/>
</g>
</svg>
