<svg width="17" height="17" viewBox="0 0 17 17" fill="none" xmlns="http://www.w3.org/2000/svg">
<path d="M0.867188 6.89062C0.867188 6.03125 1.02865 5.22656 1.35156 4.47656C1.67448 3.72135 2.1224 3.05729 2.69531 2.48438C3.26823 1.91146 3.92969 1.46354 4.67969 1.14062C5.4349 0.817708 6.24219 0.65625 7.10156 0.65625C7.96094 0.65625 8.76562 0.817708 9.51562 1.14062C10.2708 1.46354 10.9349 1.91146 11.5078 2.48438C12.0807 3.05729 12.5286 3.72135 12.8516 4.47656C13.1745 5.22656 13.3359 6.03125 13.3359 6.89062C13.3359 7.60417 13.2214 8.28125 12.9922 8.92188C12.7682 9.5625 12.4557 10.1432 12.0547 10.6641L15.875 14.5078C15.9583 14.5911 16.0208 14.6875 16.0625 14.7969C16.1094 14.9062 16.1328 15.0234 16.1328 15.1484C16.1328 15.3203 16.0938 15.4766 16.0156 15.6172C15.9427 15.7578 15.8385 15.8672 15.7031 15.9453C15.5677 16.0286 15.4115 16.0703 15.2344 16.0703C15.1094 16.0703 14.9896 16.0469 14.875 16C14.7656 15.9583 14.6641 15.8932 14.5703 15.8047L10.7266 11.9531C10.2161 12.3177 9.65365 12.6042 9.03906 12.8125C8.42448 13.0208 7.77865 13.125 7.10156 13.125C6.24219 13.125 5.4349 12.9635 4.67969 12.6406C3.92969 12.3177 3.26823 11.8698 2.69531 11.2969C2.1224 10.724 1.67448 10.0625 1.35156 9.3125C1.02865 8.55729 0.867188 7.75 0.867188 6.89062ZM2.20312 6.89062C2.20312 7.56771 2.32812 8.20312 2.57812 8.79688C2.83333 9.38542 3.1849 9.90365 3.63281 10.3516C4.08594 10.7995 4.60677 11.151 5.19531 11.4062C5.78906 11.6615 6.42448 11.7891 7.10156 11.7891C7.77865 11.7891 8.41146 11.6615 9 11.4062C9.59375 11.151 10.1146 10.7995 10.5625 10.3516C11.0104 9.90365 11.362 9.38542 11.6172 8.79688C11.8724 8.20312 12 7.56771 12 6.89062C12 6.21354 11.8724 5.58073 11.6172 4.99219C11.362 4.39844 11.0104 3.8776 10.5625 3.42969C10.1146 2.97656 9.59375 2.625 9 2.375C8.41146 2.11979 7.77865 1.99219 7.10156 1.99219C6.42448 1.99219 5.78906 2.11979 5.19531 2.375C4.60677 2.625 4.08594 2.97656 3.63281 3.42969C3.1849 3.8776 2.83333 4.39844 2.57812 4.99219C2.32812 5.58073 2.20312 6.21354 2.20312 6.89062Z" fill="black"/>
</svg>
