<svg width="107" height="29" viewBox="0 0 107 29" fill="none" xmlns="http://www.w3.org/2000/svg">
<path d="M44.6267 14.5822V19.6311C43.9867 20.1407 43.2459 20.5319 42.4044 20.8044C41.563 21.077 40.7096 21.2133 39.8444 21.2133C38.6237 21.2133 37.5215 20.9407 36.5378 20.3956C35.5541 19.8385 34.7837 19.0741 34.2267 18.1022C33.6696 17.1185 33.3911 16.0104 33.3911 14.7778C33.3911 13.5452 33.6696 12.443 34.2267 11.4711C34.7837 10.4874 35.5541 9.72296 36.5378 9.17778C37.5333 8.62074 38.6533 8.34222 39.8978 8.34222C40.9407 8.34222 41.883 8.52593 42.7244 8.89333C43.5659 9.26074 44.2711 9.79407 44.84 10.4933L43.08 12.2C42.2504 11.2637 41.2311 10.7956 40.0222 10.7956C39.2637 10.7956 38.5941 10.9615 38.0133 11.2933C37.4326 11.6252 36.9763 12.0933 36.6444 12.6978C36.3244 13.3022 36.1644 13.9956 36.1644 14.7778C36.1644 15.5481 36.3244 16.2356 36.6444 16.84C36.9763 17.4444 37.4326 17.9185 38.0133 18.2622C38.5941 18.5941 39.2578 18.76 40.0044 18.76C40.7867 18.76 41.4919 18.5822 42.12 18.2267V14.5822H44.6267ZM49.6955 11.2933C51.1059 11.2933 52.1844 11.6489 52.931 12.36C53.6896 13.0593 54.0688 14.12 54.0688 15.5422V21H51.5977V19.8089C51.0881 20.6978 50.1636 21.1422 48.8244 21.1422C48.1251 21.1422 47.5207 21.0178 47.011 20.7689C46.5014 20.52 46.1103 20.1763 45.8377 19.7378C45.5651 19.2993 45.4288 18.8015 45.4288 18.2444C45.4288 17.3556 45.7488 16.6563 46.3888 16.1467C47.0288 15.637 48.0125 15.3822 49.3399 15.3822H51.4199C51.4199 14.9556 51.3488 14.6237 51.2066 14.3867C50.8866 13.7941 50.2644 13.4978 49.3399 13.4978C48.854 13.4978 48.374 13.5807 47.8999 13.7467C47.4377 13.9007 47.0407 14.1141 46.7088 14.3867L45.7666 12.4489C46.2525 12.0815 46.8451 11.797 47.5444 11.5956C48.2436 11.3941 48.9607 11.2933 49.6955 11.2933ZM49.4822 19.2756C49.9444 19.2756 50.3473 19.1689 50.691 18.9556C51.0347 18.7304 51.2777 18.4044 51.4199 17.9778V17H49.6244C48.5459 17 48.0066 17.3733 48.0066 18.12C48.0066 18.4756 48.137 18.76 48.3977 18.9733C48.6584 19.1748 49.0199 19.2756 49.4822 19.2756ZM57.8675 7.80889V21H55.2186V7.80889H57.8675ZM68.3597 16.2533C68.3597 16.2889 68.3419 16.5378 68.3063 17H61.4441C61.5745 17.5926 61.8648 18.0607 62.3152 18.4044C62.7774 18.7481 63.3522 18.92 64.0397 18.92C64.5137 18.92 64.9285 18.8489 65.2841 18.7067C65.6515 18.5526 65.9952 18.3156 66.3152 17.9956L67.7197 19.5956C66.8545 20.6267 65.6041 21.1422 63.9685 21.1422C62.9374 21.1422 62.0248 20.9348 61.2308 20.52C60.4485 20.0933 59.8441 19.5067 59.4174 18.76C58.9908 18.0133 58.7774 17.1659 58.7774 16.2178C58.7774 15.2815 58.9848 14.44 59.3997 13.6933C59.8263 12.9348 60.4071 12.3481 61.1419 11.9333C61.8885 11.5067 62.7182 11.2933 63.6308 11.2933C64.5197 11.2933 65.3197 11.4948 66.0308 11.8978C66.7537 12.3007 67.3226 12.8815 67.7374 13.64C68.1522 14.3867 68.3597 15.2578 68.3597 16.2533ZM63.6485 13.3911C63.0559 13.3911 62.5522 13.5689 62.1374 13.9244C61.7345 14.28 61.4915 14.7659 61.4085 15.3822H65.8708C65.7759 14.7778 65.5271 14.2978 65.1241 13.9422C64.733 13.5748 64.2411 13.3911 63.6485 13.3911ZM74.7787 11.2933C75.9165 11.2933 76.8291 11.6489 77.5165 12.36C78.2039 13.0711 78.5476 14.1259 78.5476 15.5244V21H75.9165V15.9511C75.9165 15.1926 75.7565 14.6296 75.4365 14.2622C75.1165 13.883 74.6602 13.6933 74.0676 13.6933C73.4039 13.6933 72.8765 13.9126 72.4854 14.3511C72.0943 14.7778 71.8988 15.4178 71.8988 16.2711V21H69.2499V11.4356H71.7743V12.5556C72.1299 12.1526 72.5625 11.8444 73.0721 11.6311C73.5936 11.4059 74.1625 11.2933 74.7787 11.2933ZM89.3246 21H86.8001V19.8978C86.1483 20.7274 85.2061 21.1422 83.9735 21.1422C83.1201 21.1422 82.3438 20.9407 81.6446 20.5378C80.9572 20.1348 80.412 19.56 80.009 18.8133C79.6179 18.0667 79.4224 17.2015 79.4224 16.2178C79.4224 15.2341 79.6179 14.3689 80.009 13.6222C80.412 12.8756 80.9572 12.3007 81.6446 11.8978C82.3438 11.4948 83.1201 11.2933 83.9735 11.2933C85.135 11.2933 86.0416 11.6785 86.6935 12.4489V7.80889H89.3246V21ZM84.4357 18.8667C85.0994 18.8667 85.6505 18.6296 86.089 18.1556C86.5275 17.6696 86.7468 17.0237 86.7468 16.2178C86.7468 15.4119 86.5275 14.7719 86.089 14.2978C85.6505 13.8119 85.0994 13.5689 84.4357 13.5689C83.7483 13.5689 83.1853 13.8119 82.7468 14.2978C82.3083 14.7719 82.089 15.4119 82.089 16.2178C82.089 17.0237 82.3083 17.6696 82.7468 18.1556C83.1853 18.6296 83.7483 18.8667 84.4357 18.8667ZM94.5705 11.2933C95.9809 11.2933 97.0594 11.6489 97.806 12.36C98.5646 13.0593 98.9438 14.12 98.9438 15.5422V21H96.4727V19.8089C95.9631 20.6978 95.0386 21.1422 93.6994 21.1422C93.0001 21.1422 92.3957 21.0178 91.886 20.7689C91.3764 20.52 90.9853 20.1763 90.7127 19.7378C90.4401 19.2993 90.3038 18.8015 90.3038 18.2444C90.3038 17.3556 90.6238 16.6563 91.2638 16.1467C91.9038 15.637 92.8875 15.3822 94.2149 15.3822H96.2949C96.2949 14.9556 96.2238 14.6237 96.0816 14.3867C95.7616 13.7941 95.1394 13.4978 94.2149 13.4978C93.729 13.4978 93.249 13.5807 92.7749 13.7467C92.3127 13.9007 91.9157 14.1141 91.5838 14.3867L90.6416 12.4489C91.1275 12.0815 91.7201 11.797 92.4194 11.5956C93.1186 11.3941 93.8357 11.2933 94.5705 11.2933ZM94.3572 19.2756C94.8194 19.2756 95.2223 19.1689 95.566 18.9556C95.9097 18.7304 96.1527 18.4044 96.2949 17.9778V17H94.4994C93.4209 17 92.8816 17.3733 92.8816 18.12C92.8816 18.4756 93.012 18.76 93.2727 18.9733C93.5334 19.1748 93.8949 19.2756 94.3572 19.2756ZM102.977 12.6978C103.297 12.2356 103.724 11.8859 104.257 11.6489C104.791 11.4119 105.407 11.2933 106.106 11.2933V13.8533C105.798 13.8296 105.597 13.8178 105.502 13.8178C104.755 13.8178 104.169 14.043 103.742 14.4933C103.315 14.9319 103.102 15.5956 103.102 16.4844V21H100.453V11.4356H102.977V12.6978Z" fill="white"/>
<g filter="url(#filter0_i_1329_3480)">
<g clip-path="url(#clip0_1329_3480)">
<g filter="url(#filter1_i_1329_3480)">
<g filter="url(#filter2_i_1329_3480)">
<path fill-rule="evenodd" clip-rule="evenodd" d="M0.611477 24.8475C1.06474 25.3239 1.61889 25.5908 2.27395 25.6484L14.1469 26.6918C14.4948 26.7224 14.7956 26.6457 15.0491 26.4619C15.3023 26.278 15.4425 26.0318 15.4696 25.7233C15.4967 25.4145 15.4018 25.1455 15.1848 24.9162C14.9676 24.6866 14.6851 24.5565 14.337 24.5259L2.46412 23.4825L3.57345 10.8482L14.2181 11.7837L24.8628 12.7192L24.6124 15.5709C24.5855 15.8777 24.6789 16.1451 24.8927 16.3729C25.1064 16.601 25.3883 16.7304 25.7382 16.7611C26.0884 16.7919 26.3909 16.7139 26.6458 16.527C26.9009 16.3404 27.0419 16.0936 27.0689 15.7868L27.9215 6.07644C27.9722 5.49887 27.7709 4.97193 27.3177 4.49554C26.8644 4.01921 26.3103 3.75225 25.6552 3.69468L22.994 3.46082L23.0828 2.45007C23.1115 2.12279 23.006 1.83706 22.7665 1.59289C22.5272 1.34875 22.2161 1.20986 21.8331 1.17621C21.462 1.14359 21.1411 1.22694 20.8705 1.42627C20.6 1.62561 20.4503 1.88892 20.4216 2.21621L20.3328 3.22695L9.68818 2.29149L9.77689 1.28075C9.80565 0.953463 9.70021 0.667732 9.46064 0.423569C9.22111 0.179406 8.90992 0.040507 8.5273 0.00688083C8.15612 -0.025738 7.83524 0.0576158 7.56467 0.256949C7.29409 0.456283 7.14449 0.719595 7.11572 1.04688L7.02701 2.05763L4.36582 1.82376C3.71077 1.76619 3.11857 1.93241 2.58925 2.32241C2.05992 2.71241 1.7699 3.19619 1.71919 3.77376L0.00765435 23.2667C-0.0430577 23.8442 0.158216 24.3712 0.611477 24.8475ZM12.8184 18.371C12.3537 18.2572 11.9135 18.3694 11.7998 18.8344C11.6755 19.3425 12.0304 19.6751 12.5383 19.7994L13.7371 20.0929C14.2234 20.212 14.6777 20.0903 14.7967 19.6038C14.9157 19.1173 14.5689 18.7995 14.0827 18.6804L12.8184 18.371ZM12.353 15.8684C12.5953 15.4567 13.066 15.5078 13.4776 15.7502L15.1395 16.7292C15.5694 16.9824 15.8456 17.3855 15.5925 17.8157C15.3393 18.2457 14.853 18.1997 14.4231 17.9465L12.8167 17.0002C12.3684 16.7361 12.089 16.3169 12.353 15.8684ZM16.1962 15.0282C15.8809 14.7822 15.5108 14.7266 15.2649 15.0419C14.9961 15.3868 15.1428 15.7609 15.4875 16.0299L16.1543 16.5501C16.4843 16.8075 16.8685 16.8609 17.1259 16.5308C17.3832 16.2006 17.2378 15.8408 16.9078 15.5834L16.1962 15.0282ZM8.05013 5.5588C7.31347 5.49308 6.75711 4.98248 6.80741 4.41839C6.74172 5.15536 7.28556 5.80606 8.02222 5.87183C8.75884 5.93755 9.40926 5.39342 9.47499 4.65648C9.42469 5.22058 8.78675 5.62456 8.05013 5.5588ZM20.1154 5.73316C20.0655 6.29363 20.6192 6.80104 21.3522 6.86645C22.0852 6.9319 22.7199 6.53057 22.7699 5.97009C22.7045 6.70344 22.0573 7.24488 21.3242 7.17948C20.5913 7.11402 20.05 6.46651 20.1154 5.73316Z" fill="white"/>
</g>
<g filter="url(#filter3_i_1329_3480)">
<path d="M24.4416 20.4971C24.7688 21.0234 25.4606 21.1846 25.9866 20.8572C26.5127 20.5298 26.6738 19.8377 26.3465 19.3114L24.4416 20.4971ZM21.4941 21.4811C20.8814 21.5734 20.4595 22.1451 20.5518 22.758C20.644 23.3709 21.2154 23.793 21.8281 23.7007L21.4941 21.4811ZM25.394 19.9043C26.3465 19.3114 26.3464 19.3112 26.3462 19.3108C26.3461 19.3108 26.346 19.3104 26.3458 19.3103C26.3456 19.3098 26.3453 19.3094 26.345 19.3089C26.3444 19.308 26.3438 19.3069 26.343 19.3058C26.3416 19.3035 26.3399 19.3008 26.338 19.2978C26.3341 19.2917 26.3292 19.284 26.3233 19.2748C26.3114 19.2566 26.2954 19.2324 26.2755 19.2031C26.2357 19.1445 26.1797 19.0648 26.1082 18.97C25.9661 18.7813 25.7589 18.5272 25.4928 18.2577C24.9761 17.7345 24.1578 17.0724 23.0893 16.8051L22.5451 18.9827C23.0477 19.1084 23.5178 19.4515 23.8968 19.8352C24.0785 20.0192 24.2209 20.194 24.3164 20.3208C24.3639 20.3838 24.3987 20.4335 24.42 20.4649C24.4306 20.4806 24.4378 20.4915 24.4415 20.4972C24.4433 20.5 24.4442 20.5014 24.4442 20.5015C24.4442 20.5015 24.444 20.5011 24.4436 20.5004C24.4433 20.5 24.4431 20.4996 24.4427 20.499C24.4426 20.4988 24.4424 20.4985 24.4422 20.4981C24.4421 20.498 24.4419 20.4977 24.4419 20.4976C24.4417 20.4974 24.4416 20.4971 25.394 19.9043ZM23.0893 16.8051C21.6085 16.4348 20.0096 16.3304 18.3854 17.3941L19.6142 19.2721C20.4949 18.6952 21.3576 18.6857 22.5451 18.9827L23.0893 16.8051ZM18.3854 17.3941C17.6262 17.8912 16.405 19.0631 16.0973 20.9836L18.3126 21.3389C18.4916 20.2217 19.2095 19.5371 19.6142 19.2721L18.3854 17.3941ZM16.0973 20.9836C15.9299 22.0282 15.8635 22.9295 15.996 23.765C16.1337 24.634 16.4734 25.3569 16.9969 26.0687L18.804 24.7383C18.4525 24.2604 18.2836 23.8663 18.2119 23.4136C18.1348 22.9275 18.1582 22.3024 18.3126 21.3389L16.0973 20.9836ZM16.9969 26.0687C17.9481 27.3618 19.284 28.0067 20.4033 28.1828L20.7519 25.9655C20.1537 25.8714 19.3688 25.5062 18.804 24.7383L16.9969 26.0687ZM20.4033 28.1828C21.8523 28.4108 22.9505 28.2131 24.0529 27.721L23.1387 25.6712C22.4147 25.9944 21.7541 26.1232 20.7519 25.9655L20.4033 28.1828ZM24.0529 27.721C25.6877 26.9912 26.7824 25.2931 26.3156 23.6586L24.1584 24.2753C24.2301 24.5263 24.0772 25.2523 23.1387 25.6712L24.0529 27.721ZM26.3156 23.6586C25.857 22.0528 24.3222 21.6055 23.406 21.4788C22.9011 21.409 22.4293 21.4103 22.0913 21.4269C21.9199 21.4353 21.7772 21.4479 21.6746 21.4588C21.6232 21.4642 21.5816 21.4693 21.5511 21.4733C21.5358 21.4753 21.5234 21.477 21.5138 21.4783C21.509 21.479 21.505 21.4796 21.5016 21.48C21.5 21.4803 21.4985 21.4805 21.4973 21.4807C21.4967 21.4808 21.4961 21.4809 21.4955 21.4809C21.4953 21.481 21.4949 21.481 21.4947 21.481C21.4944 21.4811 21.4941 21.4811 21.6611 22.5909C21.8281 23.7007 21.8278 23.7008 21.8275 23.7008C21.8274 23.7008 21.8271 23.7008 21.8269 23.7009C21.8265 23.7009 21.8262 23.701 21.826 23.701C21.8254 23.7011 21.8251 23.7012 21.8249 23.7012C21.8245 23.7012 21.8249 23.7012 21.8259 23.701C21.8279 23.7008 21.8326 23.7001 21.8398 23.6992C21.8543 23.6973 21.8787 23.6943 21.9118 23.6907C21.9782 23.6837 22.078 23.6748 22.2009 23.6687C22.4514 23.6565 22.7753 23.6575 23.0989 23.7023C23.8396 23.8047 24.0927 24.0454 24.1584 24.2753L26.3156 23.6586Z" fill="white"/>
</g>
</g>
</g>
</g>
<defs>
<filter id="filter0_i_1329_3480" x="0" y="0" width="28" height="33" filterUnits="userSpaceOnUse" color-interpolation-filters="sRGB">
<feFlood flood-opacity="0" result="BackgroundImageFix"/>
<feBlend mode="normal" in="SourceGraphic" in2="BackgroundImageFix" result="shape"/>
<feColorMatrix in="SourceAlpha" type="matrix" values="0 0 0 0 0 0 0 0 0 0 0 0 0 0 0 0 0 0 127 0" result="hardAlpha"/>
<feOffset dy="4"/>
<feGaussianBlur stdDeviation="2"/>
<feComposite in2="hardAlpha" operator="arithmetic" k2="-1" k3="1"/>
<feColorMatrix type="matrix" values="0 0 0 0 1 0 0 0 0 1 0 0 0 0 1 0 0 0 0.25 0"/>
<feBlend mode="normal" in2="shape" result="effect1_innerShadow_1329_3480"/>
</filter>
<filter id="filter1_i_1329_3480" x="0" y="0" width="27.9291" height="32.2773" filterUnits="userSpaceOnUse" color-interpolation-filters="sRGB">
<feFlood flood-opacity="0" result="BackgroundImageFix"/>
<feBlend mode="normal" in="SourceGraphic" in2="BackgroundImageFix" result="shape"/>
<feColorMatrix in="SourceAlpha" type="matrix" values="0 0 0 0 0 0 0 0 0 0 0 0 0 0 0 0 0 0 127 0" result="hardAlpha"/>
<feOffset dy="4"/>
<feGaussianBlur stdDeviation="2"/>
<feComposite in2="hardAlpha" operator="arithmetic" k2="-1" k3="1"/>
<feColorMatrix type="matrix" values="0 0 0 0 1 0 0 0 0 1 0 0 0 0 1 0 0 0 0.25 0"/>
<feBlend mode="normal" in2="shape" result="effect1_innerShadow_1329_3480"/>
</filter>
<filter id="filter2_i_1329_3480" x="0" y="0" width="27.9291" height="30.6982" filterUnits="userSpaceOnUse" color-interpolation-filters="sRGB">
<feFlood flood-opacity="0" result="BackgroundImageFix"/>
<feBlend mode="normal" in="SourceGraphic" in2="BackgroundImageFix" result="shape"/>
<feColorMatrix in="SourceAlpha" type="matrix" values="0 0 0 0 0 0 0 0 0 0 0 0 0 0 0 0 0 0 127 0" result="hardAlpha"/>
<feOffset dy="7"/>
<feGaussianBlur stdDeviation="2"/>
<feComposite in2="hardAlpha" operator="arithmetic" k2="-1" k3="1"/>
<feColorMatrix type="matrix" values="0 0 0 0 1 0 0 0 0 1 0 0 0 0 1 0 0 0 0.25 0"/>
<feBlend mode="normal" in2="shape" result="effect1_innerShadow_1329_3480"/>
</filter>
<filter id="filter3_i_1329_3480" x="15.9257" y="16.5459" width="10.5903" height="15.7314" filterUnits="userSpaceOnUse" color-interpolation-filters="sRGB">
<feFlood flood-opacity="0" result="BackgroundImageFix"/>
<feBlend mode="normal" in="SourceGraphic" in2="BackgroundImageFix" result="shape"/>
<feColorMatrix in="SourceAlpha" type="matrix" values="0 0 0 0 0 0 0 0 0 0 0 0 0 0 0 0 0 0 127 0" result="hardAlpha"/>
<feOffset dy="7"/>
<feGaussianBlur stdDeviation="2"/>
<feComposite in2="hardAlpha" operator="arithmetic" k2="-1" k3="1"/>
<feColorMatrix type="matrix" values="0 0 0 0 1 0 0 0 0 1 0 0 0 0 1 0 0 0 0.25 0"/>
<feBlend mode="normal" in2="shape" result="effect1_innerShadow_1329_3480"/>
</filter>
<clipPath id="clip0_1329_3480">
<rect width="28" height="29" fill="white"/>
</clipPath>
</defs>
</svg>
