<svg width="25" height="24" viewBox="0 0 25 24" fill="none" xmlns="http://www.w3.org/2000/svg">
<path d="M6.39661 13.291C6.16224 13.291 5.96693 13.2129 5.81068 13.0566C5.65443 12.9004 5.5763 12.7051 5.5763 12.4707C5.5763 12.2441 5.65443 12.0527 5.81068 11.8965C5.96693 11.7402 6.16224 11.6621 6.39661 11.6621H11.7052V4.57227C11.7052 4.3457 11.7833 4.1543 11.9396 3.99805C12.0958 3.8418 12.2872 3.76367 12.5138 3.76367C12.7482 3.76367 12.9435 3.8418 13.0997 3.99805C13.256 4.1543 13.3341 4.3457 13.3341 4.57227V12.4707C13.3341 12.7051 13.256 12.9004 13.0997 13.0566C12.9435 13.2129 12.7482 13.291 12.5138 13.291H6.39661ZM12.5255 23.9785C10.8771 23.9785 9.33021 23.666 7.88489 23.041C6.43958 22.4238 5.17005 21.5684 4.0763 20.4746C2.98255 19.3809 2.12318 18.1113 1.49818 16.666C0.880988 15.2207 0.572394 13.6738 0.572394 12.0254C0.572394 10.377 0.880988 8.83008 1.49818 7.38477C2.12318 5.93945 2.98255 4.66992 4.0763 3.57617C5.17005 2.47461 6.43958 1.61523 7.88489 0.998047C9.33021 0.380859 10.8771 0.0722656 12.5255 0.0722656C14.174 0.0722656 15.7208 0.380859 17.1661 0.998047C18.6115 1.61523 19.881 2.47461 20.9747 3.57617C22.0685 4.66992 22.924 5.93945 23.5411 7.38477C24.1661 8.83008 24.4786 10.377 24.4786 12.0254C24.4786 13.6738 24.1661 15.2207 23.5411 16.666C22.924 18.1113 22.0685 19.3809 20.9747 20.4746C19.881 21.5684 18.6115 22.4238 17.1661 23.041C15.7208 23.666 14.174 23.9785 12.5255 23.9785ZM12.5255 21.9863C13.9005 21.9863 15.1896 21.7285 16.3927 21.2129C17.5958 20.6973 18.6544 19.9824 19.5685 19.0684C20.4826 18.1543 21.1974 17.0957 21.713 15.8926C22.2286 14.6895 22.4865 13.4004 22.4865 12.0254C22.4865 10.6504 22.2286 9.36133 21.713 8.1582C21.1974 6.94727 20.4826 5.88867 19.5685 4.98242C18.6544 4.06836 17.5958 3.35352 16.3927 2.83789C15.1896 2.32227 13.9005 2.06445 12.5255 2.06445C11.1505 2.06445 9.86146 2.32227 8.65833 2.83789C7.45521 3.35352 6.39661 4.06836 5.48255 4.98242C4.56849 5.88867 3.85364 6.94727 3.33802 8.1582C2.82239 9.36133 2.56458 10.6504 2.56458 12.0254C2.56458 13.4004 2.82239 14.6895 3.33802 15.8926C3.85364 17.0957 4.56849 18.1543 5.48255 19.0684C6.39661 19.9824 7.45521 20.6973 8.65833 21.2129C9.86146 21.7285 11.1505 21.9863 12.5255 21.9863Z" fill="black"/>
</svg>
