<svg width="24" height="22" viewBox="0 0 24 22" fill="none" xmlns="http://www.w3.org/2000/svg">
<path d="M0.363281 7.22266C0.363281 6.18359 0.527344 5.23438 0.855469 4.375C1.19141 3.50781 1.66016 2.75781 2.26172 2.125C2.86328 1.49219 3.56641 1.00391 4.37109 0.660156C5.18359 0.316406 6.0625 0.144531 7.00781 0.144531C8.09375 0.144531 9.06641 0.382812 9.92578 0.859375C10.7852 1.33594 11.4766 1.96875 12 2.75781C12.5312 1.96875 13.2227 1.33594 14.0742 0.859375C14.9336 0.382812 15.9062 0.144531 16.9922 0.144531C17.9453 0.144531 18.8242 0.316406 19.6289 0.660156C20.4414 1.00391 21.1445 1.49219 21.7383 2.125C22.3398 2.75781 22.8047 3.50781 23.1328 4.375C23.4688 5.23438 23.6367 6.18359 23.6367 7.22266C23.6367 8.88672 23.1953 10.5352 22.3125 12.168C21.4375 13.793 20.1914 15.3789 18.5742 16.9258C16.9648 18.4648 15.0586 19.9375 12.8555 21.3438C12.7305 21.4219 12.5859 21.4922 12.4219 21.5547C12.2656 21.625 12.125 21.6602 12 21.6602C11.8828 21.6602 11.7422 21.625 11.5781 21.5547C11.4219 21.4922 11.2812 21.4219 11.1562 21.3438C8.95312 19.9375 7.04297 18.4648 5.42578 16.9258C3.80859 15.3789 2.55859 13.793 1.67578 12.168C0.800781 10.5352 0.363281 8.88672 0.363281 7.22266ZM2.25 7.22266C2.25 8.30859 2.51172 9.41016 3.03516 10.5273C3.55859 11.6367 4.26953 12.7266 5.16797 13.7969C6.06641 14.8672 7.08203 15.8906 8.21484 16.8672C9.35547 17.8359 10.5391 18.7266 11.7656 19.5391C11.8906 19.6328 11.9688 19.6797 12 19.6797C12.0312 19.6797 12.1133 19.6328 12.2461 19.5391C13.4727 18.7266 14.6523 17.8359 15.7852 16.8672C16.9258 15.8906 17.9414 14.8672 18.832 13.7969C19.7305 12.7266 20.4414 11.6367 20.9648 10.5273C21.4883 9.41016 21.75 8.30859 21.75 7.22266C21.75 6.18359 21.543 5.27734 21.1289 4.50391C20.7227 3.72266 20.1602 3.11719 19.4414 2.6875C18.7305 2.25 17.9219 2.03125 17.0156 2.03125C16.2812 2.03125 15.6484 2.16406 15.1172 2.42969C14.5938 2.6875 14.1406 3.01562 13.7578 3.41406C13.3828 3.80469 13.0625 4.19141 12.7969 4.57422C12.625 4.80078 12.4844 4.95703 12.375 5.04297C12.2656 5.12891 12.1406 5.17188 12 5.17188C11.8594 5.17188 11.7305 5.13281 11.6133 5.05469C11.5039 4.96875 11.3672 4.80859 11.2031 4.57422C10.9531 4.18359 10.6406 3.79297 10.2656 3.40234C9.89062 3.01172 9.43359 2.6875 8.89453 2.42969C8.35547 2.16406 7.71875 2.03125 6.98438 2.03125C6.07812 2.03125 5.26562 2.25 4.54688 2.6875C3.83594 3.11719 3.27344 3.72266 2.85938 4.50391C2.45312 5.27734 2.25 6.18359 2.25 7.22266Z" fill="#FF0000"/>
</svg>
