<svg width="25" height="24" viewBox="0 0 25 24" fill="none" xmlns="http://www.w3.org/2000/svg">
<path d="M1.72084 23.0908C1.29897 23.0908 0.97084 22.9736 0.736465 22.7393C0.509903 22.5049 0.396622 22.1689 0.396622 21.7314V5.96973C0.396622 5.57129 0.478653 5.23145 0.642715 4.9502C0.806778 4.66113 1.06068 4.41895 1.40443 4.22363L7.49818 0.754883C7.86537 0.536133 8.26772 0.426758 8.70522 0.426758C9.1349 0.426758 9.52943 0.536133 9.88881 0.754883L16.2521 4.65723L22.463 1.2002C22.6583 1.09863 22.8341 1.02441 22.9904 0.977539C23.1466 0.922852 23.299 0.895508 23.4474 0.895508C23.8693 0.895508 24.1935 1.0127 24.4201 1.24707C24.6544 1.48145 24.7716 1.81348 24.7716 2.24316V18.0283C24.7716 18.4189 24.6896 18.7588 24.5255 19.0479C24.3615 19.3291 24.1037 19.5674 23.7521 19.7627L17.6232 23.2432C17.2716 23.4463 16.881 23.5479 16.4513 23.5479C15.9982 23.5479 15.5607 23.4307 15.1388 23.1963L8.65834 19.5635L2.6935 22.7744C2.506 22.8838 2.33412 22.9619 2.17787 23.0088C2.02162 23.0635 1.86928 23.0908 1.72084 23.0908ZM7.89662 17.7002V2.73535C7.82631 2.77441 7.756 2.81348 7.68568 2.85254C7.62318 2.8916 7.55287 2.93066 7.47475 2.96973L2.67006 5.78223C2.52943 5.86035 2.42787 5.9541 2.36537 6.06348C2.31068 6.16504 2.28334 6.28613 2.28334 6.42676V20.4775C2.28334 20.6025 2.33412 20.665 2.43568 20.665C2.47475 20.665 2.53334 20.6455 2.61147 20.6064L7.89662 17.7002ZM9.78334 17.8877L14.8693 20.7588C14.9552 20.8057 15.0412 20.8486 15.1271 20.8877C15.213 20.9346 15.299 20.9814 15.3849 21.0283V6.37988L10.1583 3.19238C10.0958 3.15332 10.0333 3.11816 9.97084 3.08691C9.90834 3.04785 9.84584 3.0127 9.78334 2.98145V17.8877ZM17.2716 21.2393C17.3576 21.1924 17.4435 21.1455 17.5294 21.0986C17.6232 21.0518 17.713 21.001 17.799 20.9463L22.4982 18.2158C22.6388 18.1377 22.7365 18.0439 22.7912 17.9346C22.8537 17.8252 22.8849 17.7002 22.8849 17.5596V3.50879C22.8849 3.44629 22.8693 3.39941 22.838 3.36816C22.8146 3.33691 22.7755 3.32129 22.7208 3.32129C22.6896 3.32129 22.6349 3.34082 22.5568 3.37988L17.2716 6.2627V21.2393Z" fill="black"/>
</svg>
