<svg width="25" height="25" viewBox="0 0 25 25" fill="none" xmlns="http://www.w3.org/2000/svg">
<path d="M12.5 24.4922C10.8516 24.4922 9.30469 24.1797 7.85938 23.5547C6.41406 22.9375 5.14453 22.082 4.05078 20.9883C2.95703 19.8945 2.09766 18.625 1.47266 17.1797C0.855469 15.7344 0.546875 14.1875 0.546875 12.5391C0.546875 10.8906 0.855469 9.34375 1.47266 7.89844C2.09766 6.45312 2.95703 5.18359 4.05078 4.08984C5.14453 2.98828 6.41406 2.12891 7.85938 1.51172C9.30469 0.894531 10.8516 0.585938 12.5 0.585938C14.1484 0.585938 15.6953 0.894531 17.1406 1.51172C18.5859 2.12891 19.8555 2.98828 20.9492 4.08984C22.043 5.18359 22.8984 6.45312 23.5156 7.89844C24.1406 9.34375 24.4531 10.8906 24.4531 12.5391C24.4531 14.1875 24.1406 15.7344 23.5156 17.1797C22.8984 18.625 22.043 19.8945 20.9492 20.9883C19.8555 22.082 18.5859 22.9375 17.1406 23.5547C15.6953 24.1797 14.1484 24.4922 12.5 24.4922ZM12.5 22.5C13.875 22.5 15.1641 22.2422 16.3672 21.7266C17.5703 21.2109 18.6289 20.4961 19.543 19.582C20.457 18.668 21.1719 17.6094 21.6875 16.4062C22.2031 15.2031 22.4609 13.9141 22.4609 12.5391C22.4609 11.1641 22.2031 9.875 21.6875 8.67188C21.1719 7.46094 20.457 6.40234 19.543 5.49609C18.6289 4.58203 17.5703 3.86719 16.3672 3.35156C15.1641 2.83594 13.875 2.57812 12.5 2.57812C11.125 2.57812 9.83594 2.83594 8.63281 3.35156C7.42969 3.86719 6.37109 4.58203 5.45703 5.49609C4.54297 6.40234 3.82812 7.46094 3.3125 8.67188C2.79688 9.875 2.53906 11.1641 2.53906 12.5391C2.53906 13.9141 2.79688 15.2031 3.3125 16.4062C3.82812 17.6094 4.54297 18.668 5.45703 19.582C6.37109 20.4961 7.42969 21.2109 8.63281 21.7266C9.83594 22.2422 11.125 22.5 12.5 22.5ZM12.5 17.6602C11.9922 17.6602 11.4805 17.5859 10.9648 17.4375C10.4492 17.2812 9.99609 17.043 9.60547 16.7227C9.21484 16.3945 8.94531 15.9727 8.79688 15.457C8.75 15.3008 8.72656 15.1758 8.72656 15.082C8.72656 14.8945 8.78906 14.7461 8.91406 14.6367C9.03906 14.5273 9.1875 14.4727 9.35938 14.4727C9.51562 14.4727 9.64453 14.5117 9.74609 14.5898C9.84766 14.668 9.93359 14.7969 10.0039 14.9766C10.2148 15.5391 10.5312 15.9375 10.9531 16.1719C11.3828 16.3984 11.9102 16.5117 12.5352 16.5117C12.9258 16.5117 13.3047 16.4609 13.6719 16.3594C14.0469 16.2578 14.3516 16.0859 14.5859 15.8438C14.8281 15.5938 14.9492 15.2539 14.9492 14.8242C14.9492 14.293 14.7461 13.9102 14.3398 13.6758C13.9336 13.4414 13.4688 13.2617 12.9453 13.1367L11.8203 12.8672C11.3438 12.7578 10.8828 12.6016 10.4375 12.3984C9.99219 12.1875 9.625 11.9023 9.33594 11.543C9.05469 11.1758 8.91406 10.6992 8.91406 10.1133C8.91406 9.51172 9.08203 9 9.41797 8.57812C9.75391 8.14844 10.1953 7.82031 10.7422 7.59375C11.2891 7.36719 11.875 7.25391 12.5 7.25391C13.0547 7.25391 13.6055 7.36328 14.1523 7.58203C14.6992 7.80078 15.1562 8.10547 15.5234 8.49609C15.8906 8.87891 16.0742 9.32031 16.0742 9.82031C16.0742 10.0234 16.0039 10.1758 15.8633 10.2773C15.7305 10.3711 15.5898 10.418 15.4414 10.418C15.2852 10.418 15.1523 10.375 15.043 10.2891C14.9336 10.2031 14.8477 10.0703 14.7852 9.89062C14.6289 9.39844 14.3555 9.02734 13.9648 8.77734C13.5742 8.52734 13.0859 8.40234 12.5 8.40234C12.1406 8.40234 11.7852 8.46094 11.4336 8.57812C11.082 8.69531 10.793 8.87109 10.5664 9.10547C10.3398 9.33984 10.2266 9.64453 10.2266 10.0195C10.2266 10.3398 10.3125 10.6055 10.4844 10.8164C10.6562 11.0273 10.8828 11.1992 11.1641 11.332C11.4531 11.457 11.7695 11.5586 12.1133 11.6367L13.2383 11.9062C13.7695 12.0312 14.2617 12.2031 14.7148 12.4219C15.1758 12.6328 15.5469 12.9219 15.8281 13.2891C16.1094 13.6562 16.25 14.1328 16.25 14.7188C16.25 15.3906 16.0742 15.9453 15.7227 16.3828C15.3789 16.8125 14.9219 17.1328 14.3516 17.3438C13.7812 17.5547 13.1641 17.6602 12.5 17.6602ZM12.4883 19.0547C12.3789 19.0547 12.2852 19.0156 12.207 18.9375C12.1367 18.8594 12.1016 18.7695 12.1016 18.668V6.26953C12.1016 6.16797 12.1367 6.07812 12.207 6C12.2852 5.92187 12.3789 5.88281 12.4883 5.88281C12.5977 5.88281 12.6875 5.92187 12.7578 6C12.8359 6.07812 12.875 6.16797 12.875 6.26953V18.668C12.875 18.7695 12.8359 18.8594 12.7578 18.9375C12.6875 19.0156 12.5977 19.0547 12.4883 19.0547Z" fill="black"/>
</svg>
